<mxfile host="app.diagrams.net" modified="2023-09-22T21:03:48.116Z" agent="Mozilla/5.0 (Windows NT 10.0; Win64; x64) AppleWebKit/537.36 (KHTML, like Gecko) Chrome/116.0.0.0 Safari/537.36" version="21.7.5" etag="nCcc0A7aZacJyJek98U_" type="github">
  <diagram name="Page-1" id="wOYyhq-tOD_Ln9UJ5gAq">
    <mxGraphModel>
      <root>
        <mxCell id="0" />
        <mxCell id="1" parent="0" />
      </root>
    </mxGraphModel>
  </diagram>
</mxfile>
